<?xml version="1.0" encoding="UTF-8" standalone="no"?>
<!-- Created with Inkscape (http://www.inkscape.org/) -->

<svg
   xmlns:dc="http://purl.org/dc/elements/1.1/"
   xmlns:cc="http://creativecommons.org/ns#"
   xmlns:rdf="http://www.w3.org/1999/02/22-rdf-syntax-ns#"
   xmlns:svg="http://www.w3.org/2000/svg"
   xmlns="http://www.w3.org/2000/svg"
   xmlns:sodipodi="http://sodipodi.sourceforge.net/DTD/sodipodi-0.dtd"
   xmlns:inkscape="http://www.inkscape.org/namespaces/inkscape"
   width="62.565228mm"
   height="67.505676mm"
   viewBox="0 0 43.795657 47.253971"
   version="1.1"
   id="svg4783"
   inkscape:version="0.92.2 (5c3e80d, 2017-08-06)"
   sodipodi:docname="fond-donuts.svg">
  <defs
     id="defs4777" />
  <sodipodi:namedview
     id="base"
     pagecolor="#ffffff"
     bordercolor="#666666"
     borderopacity="1.0"
     inkscape:pageopacity="0.0"
     inkscape:pageshadow="2"
     inkscape:zoom="0.35"
     inkscape:cx="800.08984"
     inkscape:cy="-49.001902"
     inkscape:document-units="mm"
     inkscape:current-layer="layer1"
     showgrid="false"
     fit-margin-top="0"
     fit-margin-left="0"
     fit-margin-right="0"
     fit-margin-bottom="0"
     scale-x="0.7"
     inkscape:pagecheckerboard="true"
     inkscape:window-width="1600"
     inkscape:window-height="836"
     inkscape:window-x="0"
     inkscape:window-y="27"
     inkscape:window-maximized="1" />
  <metadata
     id="metadata4780">
    <rdf:RDF>
      <cc:Work
         rdf:about="">
        <dc:format>image/svg+xml</dc:format>
        <dc:type
           rdf:resource="http://purl.org/dc/dcmitype/StillImage" />
        <dc:title></dc:title>
      </cc:Work>
    </rdf:RDF>
  </metadata>
  <g
     inkscape:label="Calque 1"
     inkscape:groupmode="layer"
     id="layer1"
     transform="translate(276.70235,-216.04585)">
    <g
       clip-path="none"
       inkscape:export-ydpi="72"
       inkscape:export-xdpi="72"
       inkscape:export-filename="/var/www/html/cooldev-v4/assets/img/logo-cooldev.png"
       transform="matrix(0.57076816,0,0,0.57076816,-159.17471,151.6419)"
       id="g1383-7-8-8-8"
       style="display:inline;opacity:0.578">
      <g
         transform="rotate(-7.58734,-170.51837,152.86372)"
         id="g1126-0-6-6-3">
        <path
           inkscape:connector-curvature="0"
           style="color:#000000;font-style:normal;font-variant:normal;font-weight:normal;font-stretch:normal;font-size:medium;line-height:normal;font-family:sans-serif;font-variant-ligatures:normal;font-variant-position:normal;font-variant-caps:normal;font-variant-numeric:normal;font-variant-alternates:normal;font-feature-settings:normal;text-indent:0;text-align:start;text-decoration:none;text-decoration-line:none;text-decoration-style:solid;text-decoration-color:#000000;letter-spacing:normal;word-spacing:normal;text-transform:none;writing-mode:lr-tb;direction:ltr;text-orientation:mixed;dominant-baseline:auto;baseline-shift:baseline;text-anchor:start;white-space:normal;shape-padding:0;clip-rule:nonzero;display:inline;overflow:visible;visibility:visible;opacity:1;isolation:auto;mix-blend-mode:normal;color-interpolation:sRGB;color-interpolation-filters:linearRGB;solid-color:#000000;solid-opacity:1;vector-effect:none;fill:#e6e6e6;fill-opacity:1;fill-rule:nonzero;stroke:none;stroke-width:19.08800888;stroke-linecap:round;stroke-linejoin:miter;stroke-miterlimit:4;stroke-dasharray:none;stroke-dashoffset:0;stroke-opacity:1;paint-order:markers fill stroke;color-rendering:auto;image-rendering:auto;shape-rendering:auto;text-rendering:auto;enable-background:accumulate"
           d="m -617.00977,531.67188 c -2.80311,-0.0692 -5.64498,0.0731 -8.50781,0.4414 -30.53688,3.92859 -52.28601,32.09984 -48.35742,62.63672 3.92863,30.53684 32.09984,52.28605 62.63672,48.35742 13.29769,-1.71076 24.92551,-8.02081 33.49414,-17.11914 a 55.27471,55.27471 0 0 1 -9.42774,-18.64258 c -5.6483,8.94134 -15.10809,15.36231 -26.50195,16.82813 -20.30525,2.61229 -38.65528,-11.55409 -41.26758,-31.85938 -2.61229,-20.30524 11.55413,-38.65528 31.85938,-41.26757 16.18671,-2.08245 31.12008,6.50469 37.83984,20.35742 a 55.27471,55.27471 0 0 1 11.41602,-17.55078 c -10.1054,-13.26686 -25.89943,-21.75521 -43.1836,-22.18164 z"
           transform="scale(0.26458333)"
           id="path815-4-2-0-87" />
        <path
           inkscape:connector-curvature="0"
           style="color:#000000;font-style:normal;font-variant:normal;font-weight:normal;font-stretch:normal;font-size:medium;line-height:normal;font-family:sans-serif;font-variant-ligatures:normal;font-variant-position:normal;font-variant-caps:normal;font-variant-numeric:normal;font-variant-alternates:normal;font-feature-settings:normal;text-indent:0;text-align:start;text-decoration:none;text-decoration-line:none;text-decoration-style:solid;text-decoration-color:#000000;letter-spacing:normal;word-spacing:normal;text-transform:none;writing-mode:lr-tb;direction:ltr;text-orientation:mixed;dominant-baseline:auto;baseline-shift:baseline;text-anchor:start;white-space:normal;shape-padding:0;clip-rule:nonzero;display:inline;overflow:visible;visibility:visible;opacity:1;isolation:auto;mix-blend-mode:normal;color-interpolation:sRGB;color-interpolation-filters:linearRGB;solid-color:#000000;solid-opacity:1;vector-effect:none;fill:#ececec;fill-opacity:1;fill-rule:nonzero;stroke:none;stroke-width:24.60179329;stroke-linecap:round;stroke-linejoin:miter;stroke-miterlimit:4;stroke-dasharray:none;stroke-dashoffset:0;stroke-opacity:1;paint-order:markers fill stroke;color-rendering:auto;image-rendering:auto;shape-rendering:auto;text-rendering:auto;enable-background:accumulate"
           d="m -615.33398,516.73633 c -3.6129,-0.0891 -7.27505,0.0956 -10.96485,0.57031 -39.35781,5.06343 -67.38566,41.3668 -62.32226,80.72461 5.06343,39.35781 41.3668,67.3857 80.72461,62.32227 17.20973,-2.21406 32.25461,-10.40107 43.3125,-22.20508 a 55.27471,55.27471 0 0 1 -16.95508,-17.71094 c -7.34004,8.24903 -17.59499,13.98258 -29.4961,15.51367 -26.17069,3.36692 -49.81671,-14.8879 -53.18359,-41.05859 -3.36688,-26.17066 14.88794,-49.82453 41.05859,-53.19141 17.63433,-2.2687 34.11678,5.29059 44.0293,18.46485 a 55.27471,55.27471 0 0 1 18.33594,-16.3086 c -13.05712,-16.26161 -32.89958,-26.58766 -54.53906,-27.12109 z"
           transform="scale(0.26458333)"
           id="path815-5-0-9-4-52" />
        <path
           inkscape:connector-curvature="0"
           style="color:#000000;font-style:normal;font-variant:normal;font-weight:normal;font-stretch:normal;font-size:medium;line-height:normal;font-family:sans-serif;font-variant-ligatures:normal;font-variant-position:normal;font-variant-caps:normal;font-variant-numeric:normal;font-variant-alternates:normal;font-feature-settings:normal;text-indent:0;text-align:start;text-decoration:none;text-decoration-line:none;text-decoration-style:solid;text-decoration-color:#000000;letter-spacing:normal;word-spacing:normal;text-transform:none;writing-mode:lr-tb;direction:ltr;text-orientation:mixed;dominant-baseline:auto;baseline-shift:baseline;text-anchor:start;white-space:normal;shape-padding:0;clip-rule:nonzero;display:inline;overflow:visible;visibility:visible;opacity:1;isolation:auto;mix-blend-mode:normal;color-interpolation:sRGB;color-interpolation-filters:linearRGB;solid-color:#000000;solid-opacity:1;vector-effect:none;fill:#dbdbdb;fill-opacity:1;fill-rule:nonzero;stroke:none;stroke-width:53.37691498;stroke-linecap:round;stroke-linejoin:miter;stroke-miterlimit:4;stroke-dasharray:none;stroke-dashoffset:0;stroke-opacity:1;paint-order:markers fill stroke;color-rendering:auto;image-rendering:auto;shape-rendering:auto;text-rendering:auto;enable-background:accumulate"
           d="m -622.78125,429.4082 c -6.56131,0.004 -13.19203,0.42494 -19.86328,1.28321 -85.39204,10.9858 -146.20065,89.76026 -135.21485,175.15234 10.98581,85.392 89.75246,146.20061 175.14454,135.21484 41.52506,-5.34223 77.23371,-26.71515 101.70507,-57.08203 a 55.27471,55.27471 0 0 1 -34.35937,-36.59765 55.27471,55.27471 0 0 1 -4.14844,-0.30274 c -16.07264,21.8436 -40.76474,37.27861 -70.00976,41.04102 -56.78083,7.30492 -108.08571,-32.30511 -115.39063,-89.08594 -7.30492,-56.78079 32.30312,-108.09352 89.08399,-115.39844 39.87158,-5.12953 77.04651,12.87914 98.18164,43.71875 a 55.27471,55.27471 0 0 1 42.06054,-32.57812 c -28.85549,-40.02209 -75.89528,-65.39882 -127.18945,-65.36524 z"
           transform="scale(0.26458333)"
           id="path815-8-58-0-8-4" />
        <path
           inkscape:connector-curvature="0"
           style="color:#000000;font-style:normal;font-variant:normal;font-weight:normal;font-stretch:normal;font-size:medium;line-height:normal;font-family:sans-serif;font-variant-ligatures:normal;font-variant-position:normal;font-variant-caps:normal;font-variant-numeric:normal;font-variant-alternates:normal;font-feature-settings:normal;text-indent:0;text-align:start;text-decoration:none;text-decoration-line:none;text-decoration-style:solid;text-decoration-color:#000000;letter-spacing:normal;word-spacing:normal;text-transform:none;writing-mode:lr-tb;direction:ltr;text-orientation:mixed;dominant-baseline:auto;baseline-shift:baseline;text-anchor:start;white-space:normal;shape-padding:0;clip-rule:nonzero;display:inline;overflow:visible;visibility:visible;opacity:1;isolation:auto;mix-blend-mode:normal;color-interpolation:sRGB;color-interpolation-filters:linearRGB;solid-color:#000000;solid-opacity:1;vector-effect:none;fill:#e6e6e6;fill-opacity:1;fill-rule:nonzero;stroke:none;stroke-width:94.96440887;stroke-linecap:round;stroke-linejoin:miter;stroke-miterlimit:4;stroke-dasharray:none;stroke-dashoffset:0;stroke-opacity:1;paint-order:markers fill stroke;color-rendering:auto;image-rendering:auto;shape-rendering:auto;text-rendering:auto;enable-background:accumulate"
           d="m -620.82617,438.375 c -6.19778,-5.9e-4 -12.45829,0.39319 -18.75391,1.20312 -80.58391,10.36725 -138.38869,85.24031 -128.02148,165.82422 10.3672,80.58392 85.2403,138.38674 165.82422,128.01954 38.26857,-4.9233 71.38892,-24.40022 94.51953,-52.1211 a 55.27471,55.27471 0 0 1 -28.11133,-33.92187 55.27471,55.27471 0 0 1 -45.25195,-25.5 c -8.18843,9.23044 -19.72682,15.60851 -33.27539,17.35156 -29.68086,3.81846 -55.70104,-16.26446 -59.51954,-45.94531 -3.81849,-29.6809 16.27231,-55.69713 45.95313,-59.51563 21.08666,-2.7128 40.31366,6.64756 51.05469,22.93359 a 55.27471,55.27471 0 0 1 34.23632,-19.20703 55.27471,55.27471 0 0 1 1.23047,-0.11914 55.27471,55.27471 0 0 1 37.71094,-40.78515 c -27.55392,-35.69295 -70.77578,-58.21237 -117.5957,-58.2168 z"
           id="path847-0-3-8-5"
           transform="scale(0.26458333)" />
        <path
           inkscape:connector-curvature="0"
           style="color:#000000;font-style:normal;font-variant:normal;font-weight:normal;font-stretch:normal;font-size:medium;line-height:normal;font-family:sans-serif;font-variant-ligatures:normal;font-variant-position:normal;font-variant-caps:normal;font-variant-numeric:normal;font-variant-alternates:normal;font-feature-settings:normal;text-indent:0;text-align:start;text-decoration:none;text-decoration-line:none;text-decoration-style:solid;text-decoration-color:#000000;letter-spacing:normal;word-spacing:normal;text-transform:none;writing-mode:lr-tb;direction:ltr;text-orientation:mixed;dominant-baseline:auto;baseline-shift:baseline;text-anchor:start;white-space:normal;shape-padding:0;clip-rule:nonzero;display:inline;overflow:visible;visibility:visible;opacity:1;isolation:auto;mix-blend-mode:normal;color-interpolation:sRGB;color-interpolation-filters:linearRGB;solid-color:#000000;solid-opacity:1;vector-effect:none;fill:#ffffff;fill-opacity:1;fill-rule:nonzero;stroke:none;stroke-width:94.96440887;stroke-linecap:round;stroke-linejoin:miter;stroke-miterlimit:4;stroke-dasharray:none;stroke-dashoffset:0;stroke-opacity:1;paint-order:markers fill stroke;color-rendering:auto;image-rendering:auto;shape-rendering:auto;text-rendering:auto;enable-background:accumulate"
           d="m -637.12305,441.08789 c -0.33091,0.01 -0.65912,0.0341 -0.98633,0.0762 -7.89783,1.01605 -20.51594,8.72004 -21.95507,21.45508 -1.8903,16.72755 -22.43976,19.32854 -36.52149,14.38477 -26.61766,-9.34485 -52.28476,16.25952 -45.00195,28.29882 9.31109,15.39224 11.22594,25.76505 -9.07031,33.22266 -20.45345,7.5154 -21.10279,39.79844 -15.47266,68.45508 2.90266,14.77417 19.3257,19.64808 29.63867,20.83203 -8.68925,4.88837 0.0807,27.40752 13.90039,38.25391 6.79431,5.33257 14.66428,5.02898 20.06836,11.86328 5.22044,6.60204 4.9276,23.10566 10.86524,29.33984 11.3794,11.94769 28.58799,3.39043 44.45898,7.90625 15.47547,4.4033 29.5342,22.05716 46.89063,19.82422 14.16661,-1.82256 16.5506,-20.50978 29.0625,-26 13.00667,-5.70731 29.75447,12.42642 41.27734,4.59766 7.67773,-5.21639 -0.0338,-32.38991 8.67969,-37.12891 1.2155,-0.66106 2.42054,-1.32366 3.62695,-1.98633 a 55.27471,55.27471 0 0 1 -4.05078,-3.73633 55.274708,55.274708 0 0 1 -0.2168,-0.24023 55.274709,55.274709 0 0 1 -0.043,-0.0488 55.27471,55.27471 0 0 1 -3.3789,-3.80664 55.274708,55.274708 0 0 1 -0.67774,-0.92773 55.27471,55.27471 0 0 1 -2.55468,-3.53125 55.274709,55.274709 0 0 1 0,-0.002 55.274708,55.274708 0 0 1 -0.39063,-0.66406 55.27471,55.27471 0 0 1 -0.35156,-0.59961 55.27471,55.27471 0 0 1 -2.02735,-3.49414 55.274708,55.274708 0 0 1 -0.79492,-1.72852 55.27471,55.27471 0 0 1 -1.48437,-3.27148 55.274708,55.274708 0 0 1 -1.73633,-5.05273 55.27471,55.27471 0 0 1 -43.99609,-23.6543 55.274709,55.274709 0 0 1 -0.006,-0.008 55.274708,55.274708 0 0 1 -0.004,-0.006 c -8.17425,9.09697 -19.62295,15.37821 -33.04883,17.10547 -29.68085,3.81845 -55.69713,-16.27419 -59.51562,-45.95508 -3.8185,-29.68082 16.26637,-55.69518 45.94726,-59.51367 20.28174,-2.60929 38.84554,5.94771 49.79102,21.0957 a 55.27471,55.27471 0 0 1 3.58203,-3.82617 55.274709,55.274709 0 0 1 0.0137,-0.0137 55.274708,55.274708 0 0 1 0.23633,-0.24219 55.274709,55.274709 0 0 1 0.008,-0.006 55.27471,55.27471 0 0 1 3.72071,-3.25195 55.274709,55.274709 0 0 1 0.008,-0.006 55.274708,55.274708 0 0 1 0.23633,-0.19727 55.27471,55.27471 0 0 1 0.24023,-0.20117 55.27471,55.27471 0 0 1 3.75781,-2.67188 55.274709,55.274709 0 0 1 0.0274,-0.0195 55.274708,55.274708 0 0 1 0.78906,-0.53515 55.274709,55.274709 0 0 1 0.002,-0.002 55.27471,55.27471 0 0 1 3.70508,-2.11132 55.274708,55.274708 0 0 1 1.17383,-0.63672 55.27471,55.27471 0 0 1 3.55664,-1.58008 55.274708,55.274708 0 0 1 1.58203,-0.66406 55.274709,55.274709 0 0 1 0.01,-0.004 55.27471,55.27471 0 0 1 3.27929,-1.07813 55.274709,55.274709 0 0 1 0.041,-0.0137 55.274708,55.274708 0 0 1 2.00976,-0.61328 55.27471,55.27471 0 0 1 2.96875,-0.6582 55.274708,55.274708 0 0 1 3.08203,-0.61524 55.27471,55.27471 0 0 1 1.23047,-0.11914 55.27471,55.27471 0 0 1 1.01172,-3.66211 55.274708,55.274708 0 0 1 0.48242,-1.72656 55.274709,55.274709 0 0 1 0.002,-0.006 55.27471,55.27471 0 0 1 1.9707,-5.08398 55.27471,55.27471 0 0 1 27.82227,-27.90039 c -0.47057,-8.27011 -0.38034,-15.50207 -6.95118,-20.42578 -7.7286,-5.79119 -19.44834,7.72138 -27.27343,2.70507 -12.27459,-7.86871 -12.08505,-22.63091 -27.43946,-26.16796 -9.13905,-2.10528 -23.99726,2.21709 -33.73828,1.39648 -9.83156,-0.82825 -21.81002,-15.7131 -32.06836,-15.41797 z"
           id="path847-9-0-1-8-0"
           transform="scale(0.26458333)" />
        <path
           style="fill:none;stroke:#f3f3f3;stroke-width:5.91271591;stroke-linecap:round;stroke-linejoin:miter;stroke-miterlimit:4;stroke-dasharray:none;stroke-opacity:1"
           d="m -161.80286,132.50823 c -3.00787,-0.55975 2.72444,-0.51143 0,0"
           id="path884-3-7-7-9-5"
           inkscape:connector-curvature="0"
           sodipodi:nodetypes="cc" />
      </g>
      <path
         inkscape:connector-curvature="0"
         id="path1128-7-0-0-7-7"
         d="m -195.28246,151.19504 4.5736,1.51593"
         style="fill:none;stroke:#9a9a9a;stroke-width:3;stroke-linecap:round;stroke-linejoin:miter;stroke-miterlimit:4;stroke-dasharray:none;stroke-opacity:1" />
      <path
         inkscape:connector-curvature="0"
         id="path1128-1-6-1-4-7-32"
         d="m -189.80642,141.88226 -1.5995,4.54504"
         style="fill:none;stroke:#9a9a9a;stroke-width:3;stroke-linecap:round;stroke-linejoin:miter;stroke-miterlimit:4;stroke-dasharray:none;stroke-opacity:1" />
      <path
         inkscape:connector-curvature="0"
         id="path1128-0-3-37-6-6-72"
         d="m -185.14866,148.54073 4.57358,1.51592"
         style="fill:none;stroke:#9a9a9a;stroke-width:3;stroke-linecap:round;stroke-linejoin:miter;stroke-miterlimit:4;stroke-dasharray:none;stroke-opacity:1" />
      <path
         inkscape:connector-curvature="0"
         id="path1128-17-4-3-4-1"
         d="m -177.85011,141.66549 4.01361,-2.66582"
         style="fill:none;stroke:#9a9a9a;stroke-width:3;stroke-linecap:round;stroke-linejoin:miter;stroke-miterlimit:4;stroke-dasharray:none;stroke-opacity:1" />
      <path
         inkscape:connector-curvature="0"
         id="path1128-1-5-9-8-3-3"
         d="m -181.80498,131.61194 2.59181,4.06181"
         style="fill:none;stroke:#9a9a9a;stroke-width:3;stroke-linecap:round;stroke-linejoin:miter;stroke-miterlimit:4;stroke-dasharray:none;stroke-opacity:1" />
      <path
         inkscape:connector-curvature="0"
         id="path1128-0-9-07-3-0-4"
         d="m -173.69096,132.05089 4.01361,-2.66583"
         style="fill:none;stroke:#9a9a9a;stroke-width:3;stroke-linecap:round;stroke-linejoin:miter;stroke-miterlimit:4;stroke-dasharray:none;stroke-opacity:1" />
      <path
         inkscape:connector-curvature="0"
         id="path1128-6-8-1-3-94"
         d="m -154.21452,174.33185 4.81085,0.26727"
         style="fill:none;stroke:#9a9a9a;stroke-width:3;stroke-linecap:round;stroke-linejoin:miter;stroke-miterlimit:4;stroke-dasharray:none;stroke-opacity:1" />
      <path
         inkscape:connector-curvature="0"
         id="path1128-1-2-3-1-0-19"
         d="m -181.56558,170.8602 -0.35541,4.80515"
         style="fill:none;stroke:#9a9a9a;stroke-width:3;stroke-linecap:round;stroke-linejoin:miter;stroke-miterlimit:4;stroke-dasharray:none;stroke-opacity:1" />
      <path
         inkscape:connector-curvature="0"
         id="path1128-0-1-64-6-9-57"
         d="m -174.25973,174.19821 4.81085,0.26727"
         style="fill:none;stroke:#9a9a9a;stroke-width:3;stroke-linecap:round;stroke-linejoin:miter;stroke-miterlimit:4;stroke-dasharray:none;stroke-opacity:1" />
      <path
         inkscape:connector-curvature="0"
         id="path1128-78-3-1-2-4"
         d="m -168.91577,180.96402 -3.73893,3.03909"
         style="fill:none;stroke:#9a9a9a;stroke-width:3;stroke-linecap:round;stroke-linejoin:miter;stroke-miterlimit:4;stroke-dasharray:none;stroke-opacity:1" />
      <path
         inkscape:connector-curvature="0"
         id="path1128-1-57-93-3-5-12"
         d="m -162.58944,171.92927 -0.35541,4.80515"
         style="fill:none;stroke:#9a9a9a;stroke-width:3;stroke-linecap:round;stroke-linejoin:miter;stroke-miterlimit:4;stroke-dasharray:none;stroke-opacity:1" />
      <path
         inkscape:connector-curvature="0"
         id="path1128-0-4-1-2-4-21"
         d="m -156.7095,180.21462 -0.35541,4.80515"
         style="fill:none;stroke:#9a9a9a;stroke-width:3;stroke-linecap:round;stroke-linejoin:miter;stroke-miterlimit:4;stroke-dasharray:none;stroke-opacity:1" />
      <path
         inkscape:connector-curvature="0"
         id="path1128-18-4-1-0-6"
         d="m -174.69941,168.12461 -2.48293,-4.12926"
         style="fill:none;stroke:#9a9a9a;stroke-width:3;stroke-linecap:round;stroke-linejoin:miter;stroke-miterlimit:4;stroke-dasharray:none;stroke-opacity:1" />
      <path
         inkscape:connector-curvature="0"
         id="path1128-1-59-4-5-5-20"
         d="m -183.04951,160.9333 4.17408,-2.40682"
         style="fill:none;stroke:#9a9a9a;stroke-width:3;stroke-linecap:round;stroke-linejoin:miter;stroke-miterlimit:4;stroke-dasharray:none;stroke-opacity:1" />
      <path
         inkscape:connector-curvature="0"
         id="path1128-0-7-3-4-9-2"
         d="m -189.73023,163.00342 -2.48293,-4.12926"
         style="fill:none;stroke:#9a9a9a;stroke-width:3;stroke-linecap:round;stroke-linejoin:miter;stroke-miterlimit:4;stroke-dasharray:none;stroke-opacity:1" />
      <path
         inkscape:connector-curvature="0"
         id="path1128-5-2-1-4-29"
         d="m -162.53995,128.13761 2.78395,3.9326"
         style="fill:none;stroke:#9a9a9a;stroke-width:3;stroke-linecap:round;stroke-linejoin:miter;stroke-miterlimit:4;stroke-dasharray:none;stroke-opacity:1" />
      <path
         inkscape:connector-curvature="0"
         id="path1128-1-3-9-7-6-74"
         d="m -152.6084,123.88566 -3.98297,2.7114"
         style="fill:none;stroke:#9a9a9a;stroke-width:3;stroke-linecap:round;stroke-linejoin:miter;stroke-miterlimit:4;stroke-dasharray:none;stroke-opacity:1" />
      <path
         inkscape:connector-curvature="0"
         id="path1128-0-8-5-0-9-35"
         d="m -152.80597,132.00914 2.78395,3.93259"
         style="fill:none;stroke:#9a9a9a;stroke-width:3;stroke-linecap:round;stroke-linejoin:miter;stroke-miterlimit:4;stroke-dasharray:none;stroke-opacity:1" />
      <path
         style="fill:none;stroke:#eeeeee;stroke-width:5.91271591;stroke-linecap:round;stroke-linejoin:miter;stroke-miterlimit:4;stroke-dasharray:none;stroke-opacity:0.68093381"
         d="m -170.51423,134.58044 c -17.86089,5.79251 -21.96371,29.21731 -5.41643,40.16818"
         id="path884-0-4-2-61"
         inkscape:connector-curvature="0"
         sodipodi:nodetypes="cc"
         transform="rotate(-7.5873401,-170.51837,152.86372)" />
    </g>
  </g>
</svg>
